<?xml version="1.0" encoding="UTF-8" standalone="no"?>
<!-- Created with Inkscape (http://www.inkscape.org/) -->

<svg
   width="297mm"
   height="297mm"
   viewBox="0 0 297 297"
   version="1.1"
   id="svg429"
   inkscape:version="1.2.1 (9c6d41e410, 2022-07-14)"
   sodipodi:docname="RouletiniumLogo.svg"
   xmlns:inkscape="http://www.inkscape.org/namespaces/inkscape"
   xmlns:sodipodi="http://sodipodi.sourceforge.net/DTD/sodipodi-0.dtd"
   xmlns="http://www.w3.org/2000/svg"
   xmlns:svg="http://www.w3.org/2000/svg">
  <sodipodi:namedview
     id="namedview431"
     pagecolor="#505050"
     bordercolor="#eeeeee"
     borderopacity="1"
     inkscape:showpageshadow="0"
     inkscape:pageopacity="0"
     inkscape:pagecheckerboard="0"
     inkscape:deskcolor="#505050"
     inkscape:document-units="mm"
     showgrid="false"
     inkscape:zoom="0.77682379"
     inkscape:cx="756.92841"
     inkscape:cy="616.61345"
     inkscape:window-width="1920"
     inkscape:window-height="1026"
     inkscape:window-x="0"
     inkscape:window-y="26"
     inkscape:window-maximized="1"
     inkscape:current-layer="layer1" />
  <defs
     id="defs426">
    <clipPath
       clipPathUnits="userSpaceOnUse"
       id="clipPath4880">
      <circle
         style="fill:#434343;fill-opacity:1;stroke:#ffffff;stroke-width:10;stroke-dasharray:none;stroke-opacity:1"
         id="circle4882"
         cx="524.06696"
         cy="-508.71201"
         r="265.08682" />
    </clipPath>
    <clipPath
       clipPathUnits="userSpaceOnUse"
       id="clipPath4886">
      <circle
         style="fill:#434343;fill-opacity:1;stroke:#ffffff;stroke-width:10;stroke-dasharray:none;stroke-opacity:1"
         id="circle4888"
         cx="524.06696"
         cy="-508.71201"
         r="265.08682" />
    </clipPath>
    <clipPath
       clipPathUnits="userSpaceOnUse"
       id="clipPath4892">
      <circle
         style="fill:#434343;fill-opacity:1;stroke:#ffffff;stroke-width:10;stroke-dasharray:none;stroke-opacity:1"
         id="circle4894"
         cx="524.06696"
         cy="-508.71201"
         r="265.08682" />
    </clipPath>
    <clipPath
       clipPathUnits="userSpaceOnUse"
       id="clipPath4898">
      <circle
         style="fill:#434343;fill-opacity:1;stroke:#ffffff;stroke-width:10;stroke-dasharray:none;stroke-opacity:1"
         id="circle4900"
         cx="524.06696"
         cy="-508.71201"
         r="265.08682" />
    </clipPath>
    <clipPath
       clipPathUnits="userSpaceOnUse"
       id="clipPath4880-3">
      <circle
         style="fill:#434343;fill-opacity:1;stroke:#ffffff;stroke-width:10;stroke-dasharray:none;stroke-opacity:1"
         id="circle4882-6"
         cx="524.06696"
         cy="-508.71201"
         r="265.08682" />
    </clipPath>
    <clipPath
       clipPathUnits="userSpaceOnUse"
       id="clipPath4886-7">
      <circle
         style="fill:#434343;fill-opacity:1;stroke:#ffffff;stroke-width:10;stroke-dasharray:none;stroke-opacity:1"
         id="circle4888-5"
         cx="524.06696"
         cy="-508.71201"
         r="265.08682" />
    </clipPath>
    <clipPath
       clipPathUnits="userSpaceOnUse"
       id="clipPath4892-3">
      <circle
         style="fill:#434343;fill-opacity:1;stroke:#ffffff;stroke-width:10;stroke-dasharray:none;stroke-opacity:1"
         id="circle4894-5"
         cx="524.06696"
         cy="-508.71201"
         r="265.08682" />
    </clipPath>
    <clipPath
       clipPathUnits="userSpaceOnUse"
       id="clipPath4898-6">
      <circle
         style="fill:#434343;fill-opacity:1;stroke:#ffffff;stroke-width:10;stroke-dasharray:none;stroke-opacity:1"
         id="circle4900-2"
         cx="524.06696"
         cy="-508.71201"
         r="265.08682" />
    </clipPath>
  </defs>
  <g
     inkscape:label="Warstwa 1"
     inkscape:groupmode="layer"
     id="layer1">
    <circle
       style="fill:#434343;fill-opacity:1;stroke:#ffffff;stroke-width:10.9242;stroke-dasharray:none;stroke-opacity:1"
       id="circle5011"
       cx="148.50281"
       cy="148.5683"
       r="140.2491" />
    <g
       id="g5017"
       clip-path="url(#clipPath4880-3)"
       transform="matrix(0.52906851,8.4298346e-5,-8.4298346e-5,0.52906851,-128.80737,417.66761)">
      <path
         style="color:#000000;fill:#2a5e84;stroke-width:12.3887"
         d="m 239.28445,-508.70888 284.7825,-0.003 v 265.08681 c -209.56638,27.23053 -353.58335,-26.83434 -284.7825,-265.08367 z"
         id="path5013"
         sodipodi:nodetypes="cccc" />
      <path
         style="color:#000000;fill:#ffffff"
         d="m 254.32227,-514.90625 -1.29297,4.47656 c -17.35548,60.1 -22.68651,108.94057 -17.26172,148.32422 5.42478,39.38366 21.89249,69.34358 47.4414,90.2832 51.09783,41.87925 136.19846,48.04277 241.65625,34.33985 l 5.39649,-0.70117 v -276.72266 z m -5.04311,12.38867 h 268.59389 l 10e-4,276.9649 c -101.47782,12.55895 -181.37949,-18.61568 -226.81191,-55.85162 -23.12705,-18.95469 -37.93733,-45.48188 -43.02148,-82.39257 -4.95236,-35.95385 -14.75444,-81.81942 1.23814,-138.72071 z"
         id="path5015"
         sodipodi:nodetypes="ccsssccccccssc" />
    </g>
    <g
       id="g5023"
       clip-path="url(#clipPath4886-7)"
       transform="matrix(0.52906851,8.4298346e-5,-8.4298346e-5,0.52906851,-128.80737,417.66761)">
      <path
         style="color:#000000;fill:#373737;stroke-width:12.3887"
         d="m 524.06695,-508.71202 h 265.08681 c 98.70656,278.42511 0.0168,356.29463 -265.08681,265.08681 z"
         id="path5019" />
      <path
         style="color:#000000;fill:#ffffff"
         d="m 517.87305,-514.90625 v 6.19336 269.50781 l 4.17773,1.4375 c 66.64404,22.92861 123.01808,35.34563 168.99609,36.54688 45.97802,1.20125 81.94801,-8.92438 106.24219,-31.82813 24.29419,-22.90374 36.05836,-57.91987 35.56055,-104.02344 -0.49781,-46.10356 -13.0418,-103.71067 -37.85742,-173.70898 l -1.46289,-4.125 z m 12.38867,12.38867 279.40489,-10e-4 c 23.54493,67.30187 10.33134,122.51953 10.79628,165.57959 0.47459,43.95369 -10.49599,74.9112 -31.67383,94.87695 -21.17784,19.96575 -53.41788,29.60666 -97.41992,28.45703 -43.0529,-1.12483 -97.06514,8.25025 -161.10627,-13.48736 z"
         id="path5021"
         sodipodi:nodetypes="ccccssscccccssscc" />
    </g>
    <g
       id="g5029"
       clip-path="url(#clipPath4892-3)"
       transform="matrix(0.52906851,8.4298346e-5,-8.4298346e-5,0.52906851,-128.80737,417.66761)">
      <path
         style="color:#000000;fill:#5184a9;stroke-width:12.3887"
         d="m 524.06695,-508.71202 v -265.08684 c 213.84944,-32.59712 384.88213,-23.92238 265.08681,265.08684 z"
         id="path5025" />
      <path
         style="color:#000000;fill:#ffffff"
         d="m 672.70703,-793.19531 c -44.86932,-0.73083 -95.95131,-4.09186 -149.57568,4.08212 l -5.2583,9.9921 v 276.60351 h 6.19336 269.22461 l 14.71638,-3.82435 c 30.15264,-72.744 29.14331,-128.21614 26.51994,-170.68151 -2.62336,-42.46536 -20.72285,-72.01114 -49.50781,-90.08008 -28.78496,-18.06894 -67.44318,-25.36096 -112.3125,-26.09179 z m -16.97851,12.83789 c 50.91758,-0.7955 93.75891,5.57597 122.70507,23.74609 25.72992,16.15123 41.2929,40.92531 43.72852,80.35156 2.39101,38.7041 20.20895,91.54364 -8.3337,161.35164 l -283.56669,0.002 -10e-4,-279.76677 c 44.6959,-6.67634 87.37734,14.9107 125.46826,14.3156 z"
         id="path5027"
         sodipodi:nodetypes="sccccccsssssscccs" />
    </g>
    <g
       id="g5035"
       clip-path="url(#clipPath4898-6)"
       transform="matrix(0.52906851,8.4298346e-5,-8.4298346e-5,0.52906851,-128.80737,417.66761)">
      <path
         style="color:#000000;fill:#717171;stroke-width:12.3887"
         d="M 258.98013,-508.71202 C 83.502777,-746.58342 156.44828,-843.68187 524.06695,-773.79886 v 265.08684 H 258.98013"
         id="path5031" />
      <path
         style="color:#000000;fill:#ffffff"
         d="m 324.58789,-802.1582 c -7.617,0.0616 -14.96381,0.28263 -22.03906,0.66211 -56.60202,3.0358 -96.36168,16.1194 -119.21485,40.60547 -22.85317,24.48606 -27.04984,59.6576 -14.60742,102.31445 12.44242,42.65685 41.15902,93.74623 85.26953,153.54101 l -13.39826,-3.67285 18.38264,6.19043 h 271.28125 v -276.4082 l -5.03711,-0.95899 C 444.54957,-795.2208 377.90688,-802.58919 324.58789,-802.1582 Z m 0.0937,12.39062 c 50.96092,-0.39905 115.3485,-22.31397 193.18827,-7.74051 l 0.003,282.60184 H 247.05618 c -42.5505,-58.03162 -54.85983,-107.45459 -66.43514,-147.13867 -11.74519,-40.26652 -7.63129,-69.60553 11.76953,-90.39258 19.40083,-20.78705 55.83803,-33.74042 110.82227,-36.68945 6.87303,-0.36863 14.02874,-0.58237 21.46875,-0.64063 z"
         id="path5033"
         sodipodi:nodetypes="ssssccccccsscccssss" />
    </g>
    <circle
       style="fill:#0093ff;fill-opacity:1;stroke:none;stroke-width:5.29068;stroke-linecap:butt;stroke-dasharray:none;stroke-opacity:1;paint-order:normal"
       id="circle5037"
       cx="148.50281"
       cy="148.5683"
       r="15.678069" />
    <path
       id="path5039"
       style="fill:#0093ff;stroke-width:0.507927"
       inkscape:transform-center-x="-0.32687244"
       inkscape:transform-center-y="1.4536326"
       d="M 148.51208,24.752823 144.03366,13.959217 139.55352,3.1180319 c 2.99273,-0.1924985 5.9892,-0.2680637 8.986,-0.3348763 2.97867,0.0131 5.9504,0.1308697 8.91267,0.3240119 l -4.46864,10.8463455 z"
       sodipodi:nodetypes="ccccccc" />
  </g>
</svg>
