<?xml version="1.0" encoding="UTF-8" standalone="no"?>
<!-- Created with Inkscape (http://www.inkscape.org/) -->

<svg
   xml:space="preserve"
   sodipodi:docname="RouletiniumBanner.svg"
   inkscape:version="1.2.1 (9c6d41e410, 2022-07-14)"
   id="svg5"
   version="1.1"
   viewBox="0 0 1077.8745 219.04856"
   height="827.8999"
   width="4073.8647"
   inkscape:export-filename="RouletiniumBanner.webp"
   inkscape:export-xdpi="59.369495"
   inkscape:export-ydpi="59.369495"
   xmlns:inkscape="http://www.inkscape.org/namespaces/inkscape"
   xmlns:sodipodi="http://sodipodi.sourceforge.net/DTD/sodipodi-0.dtd"
   xmlns:xlink="http://www.w3.org/1999/xlink"
   xmlns="http://www.w3.org/2000/svg"
   xmlns:svg="http://www.w3.org/2000/svg"><sodipodi:namedview
     id="namedview7"
     pagecolor="#505050"
     bordercolor="#ffffff"
     borderopacity="1"
     inkscape:showpageshadow="0"
     inkscape:pageopacity="0"
     inkscape:pagecheckerboard="1"
     inkscape:deskcolor="#505050"
     inkscape:document-units="mm"
     showgrid="false"
     showguides="true"
     inkscape:zoom="0.13638666"
     inkscape:cx="1378.4339"
     inkscape:cy="542.57504"
     inkscape:window-width="1920"
     inkscape:window-height="1026"
     inkscape:window-x="0"
     inkscape:window-y="26"
     inkscape:window-maximized="1"
     inkscape:current-layer="layer1"><sodipodi:guide
       position="584.06982,-424.41657"
       orientation="1,0"
       id="guide768"
       inkscape:locked="false" /><sodipodi:guide
       position="876.40902,173.24836"
       orientation="1,0"
       id="guide3131"
       inkscape:locked="false" /><sodipodi:guide
       position="49.378538,109.2193"
       orientation="0,-1"
       id="guide2610"
       inkscape:locked="false" /></sodipodi:namedview><defs
     id="defs2"><inkscape:path-effect
       effect="lattice2"
       gridpoint0="42.384625,30.676111"
       gridpoint1="146.25503,30.676111"
       gridpoint2="42.384625,164.94528"
       gridpoint3="146.25503,164.94528"
       gridpoint4="68.352226,30.676111"
       gridpoint5="120.28743,30.676111"
       gridpoint6="68.352226,164.94528"
       gridpoint7="120.28743,164.94528"
       gridpoint8x9="94.319828,30.676111"
       gridpoint10x11="94.319828,164.94528"
       gridpoint12="42.384625,64.243402"
       gridpoint13="146.25503,64.243402"
       gridpoint14="42.384625,131.37799"
       gridpoint15="146.25503,131.37799"
       gridpoint16="68.352226,64.243402"
       gridpoint17="120.28743,64.243402"
       gridpoint18="68.352226,131.37799"
       gridpoint19="120.28743,131.37799"
       gridpoint20x21="94.319828,64.243402"
       gridpoint22x23="94.319828,131.37799"
       gridpoint24x26="42.384625,97.810696"
       gridpoint25x27="146.25503,97.810696"
       gridpoint28x30="68.352226,97.810696"
       gridpoint29x31="120.28743,97.810696"
       gridpoint32x33x34x35="94.319828,97.810696"
       id="path-effect1521"
       is_visible="true"
       lpeversion="1"
       horizontal_mirror="false"
       vertical_mirror="true"
       perimetral="false"
       live_update="true" /><inkscape:path-effect
       effect="bounding_box"
       id="path-effect1519"
       is_visible="true"
       lpeversion="1"
       linkedpath=""
       visualbounds="true" /><inkscape:path-effect
       effect="bend_path"
       id="path-effect1517"
       is_visible="true"
       lpeversion="1"
       bendpath="M 42.384625,97.812918 H 146.25503"
       prop_scale="1"
       scale_y_rel="false"
       vertical="false"
       hide_knot="false" /><inkscape:path-effect
       effect="envelope"
       id="path-effect1513"
       is_visible="true"
       lpeversion="1"
       yy="true"
       xx="true"
       bendpath1="M 42.384625,30.676111 H 146.25503"
       bendpath2="M 146.25503,30.676111 V 164.94972"
       bendpath3="M 42.384625,164.94972 H 146.25503"
       bendpath4="M 42.384625,30.676111 V 164.94972" /><inkscape:path-effect
       effect="lattice2"
       gridpoint0="42.384625,30.676111"
       gridpoint1="146.25503,30.676111"
       gridpoint2="42.384625,164.94528"
       gridpoint3="146.25503,164.94528"
       gridpoint4="68.352226,30.676111"
       gridpoint5="120.28743,30.676111"
       gridpoint6="68.352226,164.94528"
       gridpoint7="120.28743,164.94528"
       gridpoint8x9="94.319828,30.676111"
       gridpoint10x11="94.319828,164.94528"
       gridpoint12="42.384625,64.243403"
       gridpoint13="146.25503,64.243403"
       gridpoint14="42.384625,131.37799"
       gridpoint15="146.25503,131.37799"
       gridpoint16="68.352226,64.243403"
       gridpoint17="120.28743,64.243403"
       gridpoint18="68.352226,131.37799"
       gridpoint19="120.28743,131.37799"
       gridpoint20x21="94.319828,64.243403"
       gridpoint22x23="94.319828,131.37799"
       gridpoint24x26="42.384625,97.810696"
       gridpoint25x27="146.25503,97.810696"
       gridpoint28x30="68.352226,97.810696"
       gridpoint29x31="120.28743,97.810696"
       gridpoint32x33x34x35="94.319828,97.810696"
       id="path-effect1511"
       is_visible="true"
       lpeversion="1"
       horizontal_mirror="false"
       vertical_mirror="false"
       perimetral="false"
       live_update="true" /><inkscape:path-effect
       effect="lattice2"
       gridpoint0="42.384625,30.676111"
       gridpoint1="146.25503,30.676111"
       gridpoint2="42.384625,164.94528"
       gridpoint3="146.25503,164.94528"
       gridpoint4="68.352226,30.676111"
       gridpoint5="120.28743,30.676111"
       gridpoint6="68.352226,164.94528"
       gridpoint7="120.28743,164.94528"
       gridpoint8x9="94.319828,30.676111"
       gridpoint10x11="94.319828,164.94528"
       gridpoint12="42.384625,64.243403"
       gridpoint13="146.25503,64.243403"
       gridpoint14="42.384625,131.37799"
       gridpoint15="146.25503,131.37799"
       gridpoint16="68.352226,64.243403"
       gridpoint17="120.28743,64.243403"
       gridpoint18="68.352226,131.37799"
       gridpoint19="120.28743,131.37799"
       gridpoint20x21="94.319828,64.243403"
       gridpoint22x23="94.319828,131.37799"
       gridpoint24x26="42.384625,97.810696"
       gridpoint25x27="146.25503,97.810696"
       gridpoint28x30="68.352226,97.810696"
       gridpoint29x31="120.28743,97.810696"
       gridpoint32x33x34x35="94.319828,97.810696"
       id="path-effect1476"
       is_visible="true"
       lpeversion="1"
       horizontal_mirror="false"
       vertical_mirror="false"
       perimetral="false"
       live_update="true" /><inkscape:path-effect
       effect="envelope"
       id="path-effect1474"
       is_visible="true"
       lpeversion="1"
       yy="true"
       xx="true"
       bendpath1="M 42.384625,30.676111 H 146.25503"
       bendpath2="M 146.25503,30.676111 V 164.94528"
       bendpath3="M 42.384625,164.94528 H 146.25503"
       bendpath4="M 42.384625,30.676111 V 164.94528" /><inkscape:perspective
       sodipodi:type="inkscape:persp3d"
       inkscape:vp_x="0 : 39.673557 : 1"
       inkscape:vp_y="0 : 1000.0004 : 0"
       inkscape:vp_z="199.99998 : 39.673557 : 1"
       inkscape:persp3d-origin="99.999803 : 6.3402242 : 1"
       id="perspective1469" /><linearGradient
       inkscape:collect="always"
       id="linearGradient1083"><stop
         style="stop-color:#191919;stop-opacity:1;"
         offset="0"
         id="stop1079" /><stop
         style="stop-color:#000000;stop-opacity:1;"
         offset="1"
         id="stop1081" /></linearGradient><inkscape:path-effect
       effect="skeletal"
       id="path-effect1194"
       is_visible="true"
       lpeversion="1"
       pattern="M 0,4.9921383 C 0,2.236478 2.236478,0 4.9921383,0 c 2.7556604,0 4.9921384,2.236478 4.9921384,4.9921383 0,2.7556604 -2.236478,4.9921384 -4.9921384,4.9921384 C 2.236478,9.9842767 0,7.7477987 0,4.9921383 Z"
       copytype="single_stretched"
       prop_scale="1"
       scale_y_rel="false"
       spacing="0"
       normal_offset="0"
       tang_offset="0"
       prop_units="false"
       vertical_pattern="false"
       hide_knot="false"
       fuse_tolerance="0" /><inkscape:path-effect
       effect="skeletal"
       id="path-effect1190"
       is_visible="true"
       lpeversion="1"
       pattern="M 0,4.9921383 C 0,2.236478 2.236478,0 4.9921383,0 c 2.7556604,0 4.9921384,2.236478 4.9921384,4.9921383 0,2.7556604 -2.236478,4.9921384 -4.9921384,4.9921384 C 2.236478,9.9842767 0,7.7477987 0,4.9921383 Z"
       copytype="single_stretched"
       prop_scale="1"
       scale_y_rel="false"
       spacing="0"
       normal_offset="0"
       tang_offset="0"
       prop_units="false"
       vertical_pattern="false"
       hide_knot="false"
       fuse_tolerance="0" /><clipPath
       clipPathUnits="userSpaceOnUse"
       id="clipPath303"><rect
         style="fill:#ff0000;fill-opacity:1;stroke:#000000;stroke-width:1;stroke-linecap:butt;stroke-linejoin:round;stroke-dasharray:none"
         id="rect305"
         width="28.181026"
         height="29.180349"
         x="82.744278"
         y="82.144684" /></clipPath><radialGradient
       inkscape:collect="always"
       xlink:href="#linearGradient1083"
       id="radialGradient1085"
       cx="55.879101"
       cy="56.046761"
       fx="55.879101"
       fy="56.046761"
       r="51.9352"
       gradientTransform="matrix(1.9161125,2.6426566,-1.5988003,1.159243,38.416037,-168.81699)"
       gradientUnits="userSpaceOnUse" /><clipPath
       clipPathUnits="userSpaceOnUse"
       id="clipPath476"><rect
         style="fill:#ffffff;stroke-width:0.091;stroke-linejoin:round"
         id="rect478"
         width="33.070328"
         height="33.352982"
         x="79.707962"
         y="78.294716" /></clipPath><clipPath
       clipPathUnits="userSpaceOnUse"
       id="clipPath551"><rect
         style="fill:#ffffff;stroke-width:0.091;stroke-linejoin:round"
         id="rect553"
         width="35.29327"
         height="36.744808"
         x="76.316139"
         y="78.577354" /></clipPath><clipPath
       clipPathUnits="userSpaceOnUse"
       id="clipPath539"><rect
         style="fill:#ffffff;stroke-width:0.097508;stroke-linejoin:round"
         id="rect541"
         width="37.174965"
         height="45.969044"
         x="84.742935"
         y="65.555855" /></clipPath><clipPath
       clipPathUnits="userSpaceOnUse"
       id="clipPath553"><rect
         style="fill:#ffffff;stroke-width:0.0983088;stroke-linejoin:round"
         id="rect555"
         width="30.714081"
         height="31.179003"
         x="85.219559"
         y="78.746971" /></clipPath><clipPath
       clipPathUnits="userSpaceOnUse"
       id="clipPath2226"><text
         xml:space="preserve"
         style="font-style:normal;font-variant:normal;font-weight:normal;font-stretch:normal;font-size:98.7777px;line-height:1.25;font-family:Ubuntu;-inkscape-font-specification:Ubuntu;stroke-width:0.13694"
         x="-8.1992731"
         y="70.033463"
         id="text2230"><tspan
           sodipodi:role="line"
           id="tspan2228"
           style="font-style:normal;font-variant:normal;font-weight:500;font-stretch:normal;font-size:98.7777px;font-family:Ubuntu;-inkscape-font-specification:'Ubuntu Medium';fill:#ffffff;fill-opacity:1;stroke-width:0.13694"
           x="-8.1992731"
           y="70.033463">BINGO</tspan></text></clipPath><clipPath
       clipPathUnits="userSpaceOnUse"
       id="clipPath4880"><circle
         style="fill:#434343;fill-opacity:1;stroke:#ffffff;stroke-width:10;stroke-dasharray:none;stroke-opacity:1"
         id="circle4882"
         cx="524.06696"
         cy="-508.71201"
         r="265.08682" /></clipPath><clipPath
       clipPathUnits="userSpaceOnUse"
       id="clipPath4886"><circle
         style="fill:#434343;fill-opacity:1;stroke:#ffffff;stroke-width:10;stroke-dasharray:none;stroke-opacity:1"
         id="circle4888"
         cx="524.06696"
         cy="-508.71201"
         r="265.08682" /></clipPath><clipPath
       clipPathUnits="userSpaceOnUse"
       id="clipPath4892"><circle
         style="fill:#434343;fill-opacity:1;stroke:#ffffff;stroke-width:10;stroke-dasharray:none;stroke-opacity:1"
         id="circle4894"
         cx="524.06696"
         cy="-508.71201"
         r="265.08682" /></clipPath><clipPath
       clipPathUnits="userSpaceOnUse"
       id="clipPath4898"><circle
         style="fill:#434343;fill-opacity:1;stroke:#ffffff;stroke-width:10;stroke-dasharray:none;stroke-opacity:1"
         id="circle4900"
         cx="524.06696"
         cy="-508.71201"
         r="265.08682" /></clipPath></defs><g
     inkscape:label="Warstwa 1"
     inkscape:groupmode="layer"
     id="layer1"
     transform="translate(352.53589,607.77532)"><g
       aria-label="B"
       id="text1491"
       style="font-size:195.162px;line-height:1.25;font-family:'Liberation Sans';-inkscape-font-specification:'Liberation Sans';fill:#fefefe;fill-opacity:1;stroke-width:0.0852666;stroke-dasharray:none"
       transform="matrix(1.0672411,0,0,1.0672411,-3.422424,-3.2394168)" /><circle
       style="fill:#434343;fill-opacity:1;stroke:#ffffff;stroke-width:8.20909;stroke-dasharray:none;stroke-opacity:1"
       id="path1776"
       cx="-243.04016"
       cy="-498.22324"
       r="105.39194"
       inkscape:export-filename="../../../../../Pulpit/RouletiniumLogo.png"
       inkscape:export-xdpi="58.584137"
       inkscape:export-ydpi="58.584137" /><text
       xml:space="preserve"
       style="font-style:normal;font-variant:normal;font-weight:bold;font-stretch:normal;font-size:109.361px;line-height:1.25;font-family:Ubuntu;-inkscape-font-specification:'Ubuntu Bold';fill:#0093ff;fill-opacity:1;stroke-width:0.177727"
       x="-120.0715"
       y="-461.02603"
       id="text1718"><tspan
         sodipodi:role="line"
         id="tspan1716"
         style="font-style:normal;font-variant:normal;font-weight:bold;font-stretch:normal;font-size:109.361px;font-family:Ubuntu;-inkscape-font-specification:'Ubuntu Bold';fill:#0093ff;fill-opacity:1;stroke-width:0.177727"
         x="-120.0715"
         y="-461.02603"><tspan
           style="fill:#ffffff;fill-opacity:1"
           id="tspan2604">ROULET</tspan><tspan
           style="fill:#0997ff;fill-opacity:1"
           id="tspan2602">INIUM</tspan></tspan></text><g
       id="path4870"
       clip-path="url(#clipPath4880)"
       transform="matrix(0.37306142,-0.13744527,0.13744527,0.37306142,-368.62926,-236.41191)"><path
         style="color:#000000;fill:#2a5e84;stroke-width:12.3887"
         d="m 258.98013,-508.71202 h 265.08682 v 265.08681 c -209.56638,27.23053 -333.88767,-26.83748 -265.08682,-265.08681 z"
         id="path4995" /><path
         style="color:#000000;fill:#ffffff"
         d="m 254.32227,-514.90625 -1.29297,4.47656 c -17.35548,60.1 -22.68651,108.94057 -17.26172,148.32422 5.42478,39.38366 21.89249,69.34358 47.4414,90.2832 51.09783,41.87925 136.19846,48.04277 241.65625,34.33985 l 5.39649,-0.70117 v -276.72266 z m -5.04311,12.38867 h 268.59389 v 268.4301 c -101.47782,12.55895 -181.37813,-10.08088 -226.81055,-47.31682 -23.12705,-18.95469 -37.93733,-45.48188 -43.02148,-82.39257 -4.95236,-35.95385 -14.75444,-81.81942 1.23814,-138.72071 z"
         id="path4997"
         sodipodi:nodetypes="ccsssccccccssc" /></g><g
       id="path4872"
       clip-path="url(#clipPath4886)"
       transform="matrix(0.37306142,-0.13744527,0.13744527,0.37306142,-368.62926,-236.41191)"><path
         style="color:#000000;fill:#373737;stroke-width:12.3887;-inkscape-stroke:none"
         d="m 524.06695,-508.71202 h 265.08681 c 98.70656,278.42511 0.0168,356.29463 -265.08681,265.08681 z"
         id="path5001" /><path
         style="color:#000000;fill:#ffffff;-inkscape-stroke:none"
         d="m 517.87305,-514.90625 v 6.19336 269.50781 l 4.17773,1.4375 c 66.64404,22.92861 123.01808,35.34563 168.99609,36.54688 45.97802,1.20125 81.94801,-8.92438 106.24219,-31.82813 24.29419,-22.90374 36.05836,-57.91987 35.56055,-104.02344 -0.49781,-46.10356 -13.0418,-103.71067 -37.85742,-173.70898 l -1.46289,-4.125 z m 12.38867,12.38867 h 270.21357 c 23.54493,67.30187 19.52266,122.51807 19.9876,165.57813 0.47459,43.95369 -10.49599,74.9112 -31.67383,94.87695 -21.17784,19.96575 -53.41788,29.60666 -97.41992,28.45703 -43.0529,-1.12483 -97.06629,1.0285 -161.10742,-20.70911 z"
         id="path5003"
         sodipodi:nodetypes="ccccssscccccssscc" /></g><g
       id="path4874"
       clip-path="url(#clipPath4892)"
       transform="matrix(0.37306142,-0.13744527,0.13744527,0.37306142,-368.62926,-236.41191)"><path
         style="color:#000000;fill:#5184a9;stroke-width:12.3887"
         d="m 524.06695,-508.71202 v -265.08684 c 213.84944,-32.59712 384.88213,-23.92238 265.08681,265.08684 z"
         id="path5007" /><path
         style="color:#000000;fill:#ffffff"
         d="m 672.70703,-793.19531 c -44.86932,-0.73083 -95.94985,5.09946 -149.57422,13.27344 l -5.25976,0.80078 v 276.60351 h 6.19336 269.22461 l 1.58593,-3.82226 c 30.15264,-72.744 42.27376,-128.21823 39.65039,-170.6836 -2.62336,-42.46536 -20.72285,-72.01114 -49.50781,-90.08008 -28.78496,-18.06894 -67.44318,-25.36096 -112.3125,-26.09179 z m -16.97851,12.83789 c 50.91758,-0.7955 93.75891,5.57597 122.70507,23.74609 25.72992,16.15123 41.2929,40.92531 43.72852,80.35156 2.39101,38.7041 8.39154,91.54552 -20.15111,161.35352 H 530.26172 V -785.4817 c 44.6959,-6.67634 87.37588,5.71938 125.4668,5.12428 z"
         id="path5009"
         sodipodi:nodetypes="sccccccsssssscccs" /></g><g
       id="path4876"
       clip-path="url(#clipPath4898)"
       transform="matrix(0.37306142,-0.13744527,0.13744527,0.37306142,-368.62926,-236.41191)"><path
         style="color:#000000;fill:#717171;stroke-width:12.3887;-inkscape-stroke:none"
         d="M 258.98013,-508.71202 C 83.502777,-746.58342 156.44828,-843.68187 524.06695,-773.79886 v 265.08684 H 258.98013"
         id="path4989" /><path
         style="color:#000000;fill:#ffffff;-inkscape-stroke:none"
         d="m 324.58789,-802.1582 c -7.617,0.0616 -14.96381,0.28263 -22.03906,0.66211 -56.60202,3.0358 -96.36168,16.1194 -119.21485,40.60547 -22.85317,24.48606 -27.04984,59.6576 -14.60742,102.31445 12.44242,42.65685 41.15902,93.74623 85.26953,153.54101 l 4.98438,-3.67578 v 6.19336 h 271.28125 v -276.4082 l -5.03711,-0.95899 C 444.54957,-795.2208 377.90688,-802.58919 324.58789,-802.1582 Z m 0.0937,12.39062 c 50.96092,-0.39905 115.35164,-2.61829 193.19141,11.95517 v 262.90616 H 247.05618 c -42.5505,-58.03162 -54.85983,-107.45459 -66.43514,-147.13867 -11.74519,-40.26652 -7.63129,-69.60553 11.76953,-90.39258 19.40083,-20.78705 55.83803,-33.74042 110.82227,-36.68945 6.87303,-0.36863 14.02874,-0.58237 21.46875,-0.64063 z"
         id="path4991"
         sodipodi:nodetypes="ssssccccccsscccssss" /></g><circle
       style="fill:#0093ff;fill-opacity:1;stroke:none;stroke-width:3.97575;stroke-linecap:butt;stroke-dasharray:none;stroke-opacity:1;paint-order:normal"
       id="path3913"
       cx="-243.04016"
       cy="-498.22324"
       r="11.781481" /><path
       id="path4764"
       style="fill:#0093ff;stroke-width:0.381688"
       inkscape:transform-center-x="-0.24563472"
       inkscape:transform-center-y="1.0923502"
       d="m -243.0332,-591.26594 -3.36541,-8.11099 -3.36665,-8.14675 c 2.24893,-0.14465 4.50067,-0.20143 6.75264,-0.25164 2.2384,0.01 4.47151,0.0983 6.69755,0.24348 l -3.35803,8.15063 z"
       sodipodi:nodetypes="ccccccc" /><circle
       style="fill:#434343;fill-opacity:1;stroke:#ffffff;stroke-width:16.6425;stroke-dasharray:none;stroke-opacity:1"
       id="circle5011"
       cx="-554.888"
       cy="-1098.5911"
       r="213.66382" /><g
       id="g5017"
       clip-path="url(#clipPath4880)"
       transform="matrix(0.80601442,1.2842511e-4,-1.2842511e-4,0.80601442,-977.35885,-688.62913)"><path
         style="color:#000000;fill:#2a5e84;stroke-width:12.3887"
         d="m 239.28445,-508.70888 284.7825,-0.003 v 265.08681 c -209.56638,27.23053 -353.58335,-26.83434 -284.7825,-265.08367 z"
         id="path5013"
         sodipodi:nodetypes="cccc" /><path
         style="color:#000000;fill:#ffffff"
         d="m 254.32227,-514.90625 -1.29297,4.47656 c -17.35548,60.1 -22.68651,108.94057 -17.26172,148.32422 5.42478,39.38366 21.89249,69.34358 47.4414,90.2832 51.09783,41.87925 136.19846,48.04277 241.65625,34.33985 l 5.39649,-0.70117 v -276.72266 z m -5.04311,12.38867 h 268.59389 l 10e-4,276.9649 c -101.47782,12.55895 -181.37949,-18.61568 -226.81191,-55.85162 -23.12705,-18.95469 -37.93733,-45.48188 -43.02148,-82.39257 -4.95236,-35.95385 -14.75444,-81.81942 1.23814,-138.72071 z"
         id="path5015"
         sodipodi:nodetypes="ccsssccccccssc" /></g><g
       id="g5023"
       clip-path="url(#clipPath4886)"
       transform="matrix(0.80601442,1.2842511e-4,-1.2842511e-4,0.80601442,-977.35885,-688.62913)"><path
         style="color:#000000;fill:#373737;stroke-width:12.3887"
         d="m 524.06695,-508.71202 h 265.08681 c 98.70656,278.42511 0.0168,356.29463 -265.08681,265.08681 z"
         id="path5019" /><path
         style="color:#000000;fill:#ffffff"
         d="m 517.87305,-514.90625 v 6.19336 269.50781 l 4.17773,1.4375 c 66.64404,22.92861 123.01808,35.34563 168.99609,36.54688 45.97802,1.20125 81.94801,-8.92438 106.24219,-31.82813 24.29419,-22.90374 36.05836,-57.91987 35.56055,-104.02344 -0.49781,-46.10356 -13.0418,-103.71067 -37.85742,-173.70898 l -1.46289,-4.125 z m 12.38867,12.38867 279.40489,-10e-4 c 23.54493,67.30187 10.33134,122.51953 10.79628,165.57959 0.47459,43.95369 -10.49599,74.9112 -31.67383,94.87695 -21.17784,19.96575 -53.41788,29.60666 -97.41992,28.45703 -43.0529,-1.12483 -97.06514,8.25025 -161.10627,-13.48736 z"
         id="path5021"
         sodipodi:nodetypes="ccccssscccccssscc" /></g><g
       id="g5029"
       clip-path="url(#clipPath4892)"
       transform="matrix(0.80601442,1.2842511e-4,-1.2842511e-4,0.80601442,-977.35885,-688.62913)"><path
         style="color:#000000;fill:#5184a9;stroke-width:12.3887;-inkscape-stroke:none"
         d="m 524.06695,-508.71202 v -265.08684 c 213.84944,-32.59712 384.88213,-23.92238 265.08681,265.08684 z"
         id="path5025" /><path
         style="color:#000000;fill:#ffffff;-inkscape-stroke:none"
         d="m 672.70703,-793.19531 c -44.86932,-0.73083 -95.95131,-4.09186 -149.57568,4.08212 l -5.2583,9.9921 v 276.60351 h 6.19336 269.22461 l 14.71638,-3.82435 c 30.15264,-72.744 29.14331,-128.21614 26.51994,-170.68151 -2.62336,-42.46536 -20.72285,-72.01114 -49.50781,-90.08008 -28.78496,-18.06894 -67.44318,-25.36096 -112.3125,-26.09179 z m -16.97851,12.83789 c 50.91758,-0.7955 93.75891,5.57597 122.70507,23.74609 25.72992,16.15123 41.2929,40.92531 43.72852,80.35156 2.39101,38.7041 20.20895,91.54364 -8.3337,161.35164 l -283.56669,0.002 -10e-4,-279.76677 c 44.6959,-6.67634 87.37734,14.9107 125.46826,14.3156 z"
         id="path5027"
         sodipodi:nodetypes="sccccccsssssscccs" /></g><g
       id="g5035"
       clip-path="url(#clipPath4898)"
       transform="matrix(0.80601442,1.2842511e-4,-1.2842511e-4,0.80601442,-977.35885,-688.62913)"><path
         style="color:#000000;fill:#717171;stroke-width:12.3887;-inkscape-stroke:none"
         d="M 258.98013,-508.71202 C 83.502777,-746.58342 156.44828,-843.68187 524.06695,-773.79886 v 265.08684 H 258.98013"
         id="path5031" /><path
         style="color:#000000;fill:#ffffff;-inkscape-stroke:none"
         d="m 324.58789,-802.1582 c -7.617,0.0616 -14.96381,0.28263 -22.03906,0.66211 -56.60202,3.0358 -96.36168,16.1194 -119.21485,40.60547 -22.85317,24.48606 -27.04984,59.6576 -14.60742,102.31445 12.44242,42.65685 41.15902,93.74623 85.26953,153.54101 l -13.39826,-3.67285 18.38264,6.19043 h 271.28125 v -276.4082 l -5.03711,-0.95899 C 444.54957,-795.2208 377.90688,-802.58919 324.58789,-802.1582 Z m 0.0937,12.39062 c 50.96092,-0.39905 115.3485,-22.31397 193.18827,-7.74051 l 0.003,282.60184 H 247.05618 c -42.5505,-58.03162 -54.85983,-107.45459 -66.43514,-147.13867 -11.74519,-40.26652 -7.63129,-69.60553 11.76953,-90.39258 19.40083,-20.78705 55.83803,-33.74042 110.82227,-36.68945 6.87303,-0.36863 14.02874,-0.58237 21.46875,-0.64063 z"
         id="path5033"
         sodipodi:nodetypes="ssssccccccsscccssss" /></g><circle
       style="fill:#0093ff;fill-opacity:1;stroke:none;stroke-width:8.06014;stroke-linecap:butt;stroke-dasharray:none;stroke-opacity:1;paint-order:normal"
       id="circle5037"
       cx="-554.888"
       cy="-1098.5911"
       r="23.884901" /><path
       id="path5039"
       style="fill:#0093ff;stroke-width:0.773806"
       inkscape:transform-center-x="-0.49798101"
       inkscape:transform-center-y="2.2145545"
       d="m -554.8739,-1287.2189 -6.8227,-16.4436 -6.8253,-16.5161 c 4.5593,-0.2933 9.1243,-0.4084 13.6898,-0.5102 4.5379,0.02 9.0652,0.1994 13.5781,0.4936 l -6.8078,16.524 z"
       sodipodi:nodetypes="ccccccc" /></g></svg>
